<svg width="1465" height="600" viewBox="0 0 1465 600" fill="none" xmlns="http://www.w3.org/2000/svg">
<mask id="mask0_0_1" style="mask-type:luminance" maskUnits="userSpaceOnUse" x="40" y="40" width="1385" height="520">
<path d="M1425 40H40V560H1425V40Z" fill="white"/>
</mask>
<g mask="url(#mask0_0_1)">
<path d="M173.705 100.529L204.482 139.745L158.316 147.588L173.705 100.529Z" fill="#44BF9E"/>
<path d="M235.26 77L262.191 131.902H208.33L235.26 77Z" fill="#44BF9E"/>
<path d="M296.816 100.529L312.205 147.588L266.038 139.745L296.816 100.529Z" fill="#44BF9E"/>
<path d="M235.879 117.562L320.517 148.935L374.379 235.21L328.212 337.17L266.656 431.288L235.879 478.347L205.101 431.288L143.545 337.17L97.3785 235.21L151.24 148.935L235.879 117.562Z" fill="#44BF9E"/>
<path d="M173.705 100.529L204.482 139.745L158.316 147.588L173.705 100.529Z" fill="#44BF9E"/>
<path d="M235.26 77L262.191 131.902H208.33L235.26 77Z" fill="#44BF9E"/>
<path d="M296.816 100.529L312.205 147.588L266.038 139.745L296.816 100.529Z" fill="#44BF9E"/>
<path d="M235.879 117.562L320.517 148.935L374.379 235.21L328.212 337.17L266.656 431.288L235.879 478.347L205.101 431.288L143.545 337.17L97.3785 235.21L151.24 148.935L235.879 117.562Z" fill="#44BF9E"/>
<path d="M173.705 100.529L204.482 139.745L158.316 147.588L173.705 100.529Z" fill="#44BF9E"/>
<path d="M235.26 77L262.191 131.902H208.33L235.26 77Z" fill="#44BF9E"/>
<path d="M296.816 100.529L312.205 147.588L266.038 139.745L296.816 100.529Z" fill="#44BF9E"/>
<path d="M235.879 117.562L320.517 148.935L374.379 235.21L328.212 337.17L266.656 431.288L235.879 478.347L205.101 431.288L143.545 337.17L97.3785 235.21L151.24 148.935L235.879 117.562Z" fill="#44BF9E"/>
<path d="M173.705 100.529L204.482 139.745L158.316 147.588L173.705 100.529Z" fill="#44BF9E"/>
<path d="M235.26 77L262.191 131.902H208.33L235.26 77Z" fill="#44BF9E"/>
<path d="M296.816 100.529L312.205 147.588L266.038 139.745L296.816 100.529Z" fill="#44BF9E"/>
<path d="M235.879 117.562L320.517 148.935L374.379 235.21L328.212 337.17L266.656 431.288L235.879 478.347L205.101 431.288L143.545 337.17L97.3785 235.21L151.24 148.935L235.879 117.562Z" fill="#44BF9E"/>
<path d="M793.159 450V286.364H823.948V312.358H825.652C828.635 303.551 833.891 296.626 841.419 291.584C849.019 286.47 857.613 283.913 867.201 283.913C869.189 283.913 871.533 283.984 874.232 284.126C877.002 284.268 879.168 284.446 880.73 284.659V315.128C879.452 314.773 877.179 314.382 873.912 313.956C870.645 313.459 867.378 313.21 864.111 313.21C856.583 313.21 849.871 314.808 843.976 318.004C838.152 321.129 833.536 325.497 830.127 331.108C826.718 336.648 825.013 342.969 825.013 350.071V450H793.159Z" fill="white"/>
<path d="M793.159 450V286.364H823.948V312.358H825.652C828.635 303.551 833.891 296.626 841.419 291.584C849.019 286.47 857.613 283.913 867.201 283.913C869.189 283.913 871.533 283.984 874.232 284.126C877.002 284.268 879.168 284.446 880.73 284.659V315.128C879.452 314.773 877.179 314.382 873.912 313.956C870.645 313.459 867.378 313.21 864.111 313.21C856.583 313.21 849.871 314.808 843.976 318.004C838.152 321.129 833.536 325.497 830.127 331.108C826.718 336.648 825.013 342.969 825.013 350.071V450H793.159Z" fill="white"/>
<path d="M793.159 450V286.364H823.948V312.358H825.652C828.635 303.551 833.891 296.626 841.419 291.584C849.019 286.47 857.613 283.913 867.201 283.913C869.189 283.913 871.533 283.984 874.232 284.126C877.002 284.268 879.168 284.446 880.73 284.659V315.128C879.452 314.773 877.179 314.382 873.912 313.956C870.645 313.459 867.378 313.21 864.111 313.21C856.583 313.21 849.871 314.808 843.976 318.004C838.152 321.129 833.536 325.497 830.127 331.108C826.718 336.648 825.013 342.969 825.013 350.071V450H793.159Z" fill="white"/>
<path d="M793.159 450V286.364H823.948V312.358H825.652C828.635 303.551 833.891 296.626 841.419 291.584C849.019 286.47 857.613 283.913 867.201 283.913C869.189 283.913 871.533 283.984 874.232 284.126C877.002 284.268 879.168 284.446 880.73 284.659V315.128C879.452 314.773 877.179 314.382 873.912 313.956C870.645 313.459 867.378 313.21 864.111 313.21C856.583 313.21 849.871 314.808 843.976 318.004C838.152 321.129 833.536 325.497 830.127 331.108C826.718 336.648 825.013 342.969 825.013 350.071V450H793.159Z" fill="black"/>
<path d="M669.979 453.622C659.61 453.622 650.235 451.705 641.854 447.869C633.474 443.963 626.833 438.317 621.933 430.93C617.103 423.544 614.688 414.489 614.688 403.764C614.688 394.531 616.464 386.932 620.015 380.966C623.566 375 628.36 370.277 634.397 366.797C640.434 363.317 647.181 360.689 654.639 358.913C662.096 357.138 669.695 355.788 677.437 354.865C687.238 353.729 695.193 352.805 701.3 352.095C707.408 351.314 711.847 350.071 714.617 348.366C717.387 346.662 718.772 343.892 718.772 340.057V339.311C718.772 330.007 716.144 322.798 710.889 317.685C705.704 312.571 697.962 310.014 687.664 310.014C676.94 310.014 668.488 312.393 662.309 317.152C656.201 321.839 651.975 327.06 649.631 332.812L619.695 325.994C623.246 316.051 628.431 308.026 635.249 301.918C642.139 295.739 650.058 291.264 659.006 288.494C667.955 285.653 677.366 284.233 687.238 284.233C693.772 284.233 700.697 285.014 708.012 286.577C715.398 288.068 722.288 290.838 728.68 294.886C735.143 298.935 740.434 304.723 744.553 312.251C748.673 319.709 750.732 329.403 750.732 341.335V450H719.624V427.628H718.346C716.286 431.747 713.197 435.795 709.077 439.773C704.958 443.75 699.667 447.053 693.204 449.68C686.741 452.308 678.999 453.622 669.979 453.622ZM676.904 428.054C685.711 428.054 693.239 426.314 699.489 422.834C705.81 419.354 710.604 414.808 713.871 409.197C717.21 403.516 718.879 397.443 718.879 390.98V369.886C717.742 371.023 715.541 372.088 712.273 373.082C709.077 374.006 705.42 374.822 701.3 375.533C697.181 376.172 693.168 376.776 689.262 377.344C685.356 377.841 682.089 378.267 679.461 378.622C673.282 379.403 667.636 380.717 662.522 382.564C657.479 384.41 653.431 387.074 650.377 390.554C647.394 393.963 645.903 398.508 645.903 404.19C645.903 412.074 648.815 418.04 654.639 422.088C660.462 426.065 667.884 428.054 676.904 428.054Z" fill="white"/>
<path d="M669.979 453.622C659.61 453.622 650.235 451.705 641.854 447.869C633.474 443.963 626.833 438.317 621.933 430.93C617.103 423.544 614.688 414.489 614.688 403.764C614.688 394.531 616.464 386.932 620.015 380.966C623.566 375 628.36 370.277 634.397 366.797C640.434 363.317 647.181 360.689 654.639 358.913C662.096 357.138 669.695 355.788 677.437 354.865C687.238 353.729 695.193 352.805 701.3 352.095C707.408 351.314 711.847 350.071 714.617 348.366C717.387 346.662 718.772 343.892 718.772 340.057V339.311C718.772 330.007 716.144 322.798 710.889 317.685C705.704 312.571 697.962 310.014 687.664 310.014C676.94 310.014 668.488 312.393 662.309 317.152C656.201 321.839 651.975 327.06 649.631 332.812L619.695 325.994C623.246 316.051 628.431 308.026 635.249 301.918C642.139 295.739 650.058 291.264 659.006 288.494C667.955 285.653 677.366 284.233 687.238 284.233C693.772 284.233 700.697 285.014 708.012 286.577C715.398 288.068 722.288 290.838 728.68 294.886C735.143 298.935 740.434 304.723 744.553 312.251C748.673 319.709 750.732 329.403 750.732 341.335V450H719.624V427.628H718.346C716.286 431.747 713.197 435.795 709.077 439.773C704.958 443.75 699.667 447.053 693.204 449.68C686.741 452.308 678.999 453.622 669.979 453.622ZM676.904 428.054C685.711 428.054 693.239 426.314 699.489 422.834C705.81 419.354 710.604 414.808 713.871 409.197C717.21 403.516 718.879 397.443 718.879 390.98V369.886C717.742 371.023 715.541 372.088 712.273 373.082C709.077 374.006 705.42 374.822 701.3 375.533C697.181 376.172 693.168 376.776 689.262 377.344C685.356 377.841 682.089 378.267 679.461 378.622C673.282 379.403 667.636 380.717 662.522 382.564C657.479 384.41 653.431 387.074 650.377 390.554C647.394 393.963 645.903 398.508 645.903 404.19C645.903 412.074 648.815 418.04 654.639 422.088C660.462 426.065 667.884 428.054 676.904 428.054Z" fill="white"/>
<path d="M669.979 453.622C659.61 453.622 650.235 451.705 641.854 447.869C633.474 443.963 626.833 438.317 621.933 430.93C617.103 423.544 614.688 414.489 614.688 403.764C614.688 394.531 616.464 386.932 620.015 380.966C623.566 375 628.36 370.277 634.397 366.797C640.434 363.317 647.181 360.689 654.639 358.913C662.096 357.138 669.695 355.788 677.437 354.865C687.238 353.729 695.193 352.805 701.3 352.095C707.408 351.314 711.847 350.071 714.617 348.366C717.387 346.662 718.772 343.892 718.772 340.057V339.311C718.772 330.007 716.144 322.798 710.889 317.685C705.704 312.571 697.962 310.014 687.664 310.014C676.94 310.014 668.488 312.393 662.309 317.152C656.201 321.839 651.975 327.06 649.631 332.812L619.695 325.994C623.246 316.051 628.431 308.026 635.249 301.918C642.139 295.739 650.058 291.264 659.006 288.494C667.955 285.653 677.366 284.233 687.238 284.233C693.772 284.233 700.697 285.014 708.012 286.577C715.398 288.068 722.288 290.838 728.68 294.886C735.143 298.935 740.434 304.723 744.553 312.251C748.673 319.709 750.732 329.403 750.732 341.335V450H719.624V427.628H718.346C716.286 431.747 713.197 435.795 709.077 439.773C704.958 443.75 699.667 447.053 693.204 449.68C686.741 452.308 678.999 453.622 669.979 453.622ZM676.904 428.054C685.711 428.054 693.239 426.314 699.489 422.834C705.81 419.354 710.604 414.808 713.871 409.197C717.21 403.516 718.879 397.443 718.879 390.98V369.886C717.742 371.023 715.541 372.088 712.273 373.082C709.077 374.006 705.42 374.822 701.3 375.533C697.181 376.172 693.168 376.776 689.262 377.344C685.356 377.841 682.089 378.267 679.461 378.622C673.282 379.403 667.636 380.717 662.522 382.564C657.479 384.41 653.431 387.074 650.377 390.554C647.394 393.963 645.903 398.508 645.903 404.19C645.903 412.074 648.815 418.04 654.639 422.088C660.462 426.065 667.884 428.054 676.904 428.054Z" fill="white"/>
<path d="M669.979 453.622C659.61 453.622 650.235 451.705 641.854 447.869C633.474 443.963 626.833 438.317 621.933 430.93C617.103 423.544 614.688 414.489 614.688 403.764C614.688 394.531 616.464 386.932 620.015 380.966C623.566 375 628.36 370.277 634.397 366.797C640.434 363.317 647.181 360.689 654.639 358.913C662.096 357.138 669.695 355.788 677.437 354.865C687.238 353.729 695.193 352.805 701.3 352.095C707.408 351.314 711.847 350.071 714.617 348.366C717.387 346.662 718.772 343.892 718.772 340.057V339.311C718.772 330.007 716.144 322.798 710.889 317.685C705.704 312.571 697.962 310.014 687.664 310.014C676.94 310.014 668.488 312.393 662.309 317.152C656.201 321.839 651.975 327.06 649.631 332.812L619.695 325.994C623.246 316.051 628.431 308.026 635.249 301.918C642.139 295.739 650.058 291.264 659.006 288.494C667.955 285.653 677.366 284.233 687.238 284.233C693.772 284.233 700.697 285.014 708.012 286.577C715.398 288.068 722.288 290.838 728.68 294.886C735.143 298.935 740.434 304.723 744.553 312.251C748.673 319.709 750.732 329.403 750.732 341.335V450H719.624V427.628H718.346C716.286 431.747 713.197 435.795 709.077 439.773C704.958 443.75 699.667 447.053 693.204 449.68C686.741 452.308 678.999 453.622 669.979 453.622ZM676.904 428.054C685.711 428.054 693.239 426.314 699.489 422.834C705.81 419.354 710.604 414.808 713.871 409.197C717.21 403.516 718.879 397.443 718.879 390.98V369.886C717.742 371.023 715.541 372.088 712.273 373.082C709.077 374.006 705.42 374.822 701.3 375.533C697.181 376.172 693.168 376.776 689.262 377.344C685.356 377.841 682.089 378.267 679.461 378.622C673.282 379.403 667.636 380.717 662.522 382.564C657.479 384.41 653.431 387.074 650.377 390.554C647.394 393.963 645.903 398.508 645.903 404.19C645.903 412.074 648.815 418.04 654.639 422.088C660.462 426.065 667.884 428.054 676.904 428.054Z" fill="black"/>
<path d="M450.04 231.818L510.764 409.517H513.215L573.939 231.818H609.521L531.006 450H492.973L414.458 231.818H450.04Z" fill="white"/>
<path d="M450.04 231.818L510.764 409.517H513.215L573.939 231.818H609.521L531.006 450H492.973L414.458 231.818H450.04Z" fill="white"/>
<path d="M450.04 231.818L510.764 409.517H513.215L573.939 231.818H609.521L531.006 450H492.973L414.458 231.818H450.04Z" fill="white"/>
<path d="M450.04 231.818L510.764 409.517H513.215L573.939 231.818H609.521L531.006 450H492.973L414.458 231.818H450.04Z" fill="#050505"/>
<path d="M1261.68 385.705H1297.48L1318.68 413.19L1333.8 431.088L1370.13 477.75H1331.78L1307.06 446.429L1296.52 431.514L1261.68 385.705ZM1375.35 349.909C1375.35 373.418 1370.95 393.553 1362.14 410.314C1353.41 427.004 1341.47 439.788 1326.35 448.666C1311.29 457.544 1294.21 461.983 1275.1 461.983C1256 461.983 1238.88 457.544 1223.75 448.666C1208.7 439.717 1196.77 426.898 1187.96 410.207C1179.22 393.446 1174.85 373.347 1174.85 349.909C1174.85 326.401 1179.22 306.301 1187.96 289.611C1196.77 272.849 1208.7 260.03 1223.75 251.152C1238.88 242.274 1256 237.835 1275.1 237.835C1294.21 237.835 1311.29 242.274 1326.35 251.152C1341.47 260.03 1353.41 272.849 1362.14 289.611C1370.95 306.301 1375.35 326.401 1375.35 349.909ZM1335.61 349.909C1335.61 333.361 1333.02 319.405 1327.84 308.041C1322.72 296.607 1315.62 287.977 1306.53 282.153C1297.44 276.259 1286.96 273.311 1275.1 273.311C1263.24 273.311 1252.77 276.259 1243.68 282.153C1234.59 287.977 1227.45 296.607 1222.26 308.041C1217.15 319.405 1214.59 333.361 1214.59 349.909C1214.59 366.457 1217.15 380.449 1222.26 391.883C1227.45 403.247 1234.59 411.876 1243.68 417.771C1252.77 423.595 1263.24 426.507 1275.1 426.507C1286.96 426.507 1297.44 423.595 1306.53 417.771C1315.62 411.876 1322.72 403.247 1327.84 391.883C1333.02 380.449 1335.61 366.457 1335.61 349.909Z" fill="#44BF9E"/>
<path d="M1261.68 385.705H1297.48L1318.68 413.19L1333.8 431.088L1370.13 477.75H1331.78L1307.06 446.429L1296.52 431.514L1261.68 385.705ZM1375.35 349.909C1375.35 373.418 1370.95 393.553 1362.14 410.314C1353.41 427.004 1341.47 439.788 1326.35 448.666C1311.29 457.544 1294.21 461.983 1275.1 461.983C1256 461.983 1238.88 457.544 1223.75 448.666C1208.7 439.717 1196.77 426.898 1187.96 410.207C1179.22 393.446 1174.85 373.347 1174.85 349.909C1174.85 326.401 1179.22 306.301 1187.96 289.611C1196.77 272.849 1208.7 260.03 1223.75 251.152C1238.88 242.274 1256 237.835 1275.1 237.835C1294.21 237.835 1311.29 242.274 1326.35 251.152C1341.47 260.03 1353.41 272.849 1362.14 289.611C1370.95 306.301 1375.35 326.401 1375.35 349.909ZM1335.61 349.909C1335.61 333.361 1333.02 319.405 1327.84 308.041C1322.72 296.607 1315.62 287.977 1306.53 282.153C1297.44 276.259 1286.96 273.311 1275.1 273.311C1263.24 273.311 1252.77 276.259 1243.68 282.153C1234.59 287.977 1227.45 296.607 1222.26 308.041C1217.15 319.405 1214.59 333.361 1214.59 349.909C1214.59 366.457 1217.15 380.449 1222.26 391.883C1227.45 403.247 1234.59 411.876 1243.68 417.771C1252.77 423.595 1263.24 426.507 1275.1 426.507C1286.96 426.507 1297.44 423.595 1306.53 417.771C1315.62 411.876 1322.72 403.247 1327.84 391.883C1333.02 380.449 1335.61 366.457 1335.61 349.909Z" fill="#44BF9E"/>
<path d="M1261.68 385.705H1297.48L1318.68 413.19L1333.8 431.088L1370.13 477.75H1331.78L1307.06 446.429L1296.52 431.514L1261.68 385.705ZM1375.35 349.909C1375.35 373.418 1370.95 393.553 1362.14 410.314C1353.41 427.004 1341.47 439.788 1326.35 448.666C1311.29 457.544 1294.21 461.983 1275.1 461.983C1256 461.983 1238.88 457.544 1223.75 448.666C1208.7 439.717 1196.77 426.898 1187.96 410.207C1179.22 393.446 1174.85 373.347 1174.85 349.909C1174.85 326.401 1179.22 306.301 1187.96 289.611C1196.77 272.849 1208.7 260.03 1223.75 251.152C1238.88 242.274 1256 237.835 1275.1 237.835C1294.21 237.835 1311.29 242.274 1326.35 251.152C1341.47 260.03 1353.41 272.849 1362.14 289.611C1370.95 306.301 1375.35 326.401 1375.35 349.909ZM1335.61 349.909C1335.61 333.361 1333.02 319.405 1327.84 308.041C1322.72 296.607 1315.62 287.977 1306.53 282.153C1297.44 276.259 1286.96 273.311 1275.1 273.311C1263.24 273.311 1252.77 276.259 1243.68 282.153C1234.59 287.977 1227.45 296.607 1222.26 308.041C1217.15 319.405 1214.59 333.361 1214.59 349.909C1214.59 366.457 1217.15 380.449 1222.26 391.883C1227.45 403.247 1234.59 411.876 1243.68 417.771C1252.77 423.595 1263.24 426.507 1275.1 426.507C1286.96 426.507 1297.44 423.595 1306.53 417.771C1315.62 411.876 1322.72 403.247 1327.84 391.883C1333.02 380.449 1335.61 366.457 1335.61 349.909Z" fill="#44BF9E"/>
<path d="M1261.68 385.705H1297.48L1318.68 413.19L1333.8 431.088L1370.13 477.75H1331.78L1307.06 446.429L1296.52 431.514L1261.68 385.705ZM1375.35 349.909C1375.35 373.418 1370.95 393.553 1362.14 410.314C1353.41 427.004 1341.47 439.788 1326.35 448.666C1311.29 457.544 1294.21 461.983 1275.1 461.983C1256 461.983 1238.88 457.544 1223.75 448.666C1208.7 439.717 1196.77 426.898 1187.96 410.207C1179.22 393.446 1174.85 373.347 1174.85 349.909C1174.85 326.401 1179.22 306.301 1187.96 289.611C1196.77 272.849 1208.7 260.03 1223.75 251.152C1238.88 242.274 1256 237.835 1275.1 237.835C1294.21 237.835 1311.29 242.274 1326.35 251.152C1341.47 260.03 1353.41 272.849 1362.14 289.611C1370.95 306.301 1375.35 326.401 1375.35 349.909ZM1335.61 349.909C1335.61 333.361 1333.02 319.405 1327.84 308.041C1322.72 296.607 1315.62 287.977 1306.53 282.153C1297.44 276.259 1286.96 273.311 1275.1 273.311C1263.24 273.311 1252.77 276.259 1243.68 282.153C1234.59 287.977 1227.45 296.607 1222.26 308.041C1217.15 319.405 1214.59 333.361 1214.59 349.909C1214.59 366.457 1217.15 380.449 1222.26 391.883C1227.45 403.247 1234.59 411.876 1243.68 417.771C1252.77 423.595 1263.24 426.507 1275.1 426.507C1286.96 426.507 1297.44 423.595 1306.53 417.771C1315.62 411.876 1322.72 403.247 1327.84 391.883C1333.02 380.449 1335.61 366.457 1335.61 349.909Z" fill="#44BF9E"/>
<path d="M908.52 240.818H956.887L1021.66 398.915H1024.22L1088.99 240.818H1137.36V459H1099.43V309.106H1097.4L1037.11 458.361H1008.77L948.47 308.787H946.446V459H908.52V240.818Z" fill="#44BF9E"/>
<path d="M908.52 240.818H956.887L1021.66 398.915H1024.22L1088.99 240.818H1137.36V459H1099.43V309.106H1097.4L1037.11 458.361H1008.77L948.47 308.787H946.446V459H908.52V240.818Z" fill="#44BF9E"/>
<path d="M908.52 240.818H956.887L1021.66 398.915H1024.22L1088.99 240.818H1137.36V459H1099.43V309.106H1097.4L1037.11 458.361H1008.77L948.47 308.787H946.446V459H908.52V240.818Z" fill="#44BF9E"/>
<path d="M908.52 240.818H956.887L1021.66 398.915H1024.22L1088.99 240.818H1137.36V459H1099.43V309.106H1097.4L1037.11 458.361H1008.77L948.47 308.787H946.446V459H908.52V240.818Z" fill="#44BF9E"/>
<path d="M194 238C194 257.33 178.33 273 159 273C139.67 273 124 257.33 124 238C124 218.67 139.67 203 159 203C178.33 203 194 218.67 194 238Z" fill="black"/>
<path d="M194 238C194 257.33 178.33 273 159 273C139.67 273 124 257.33 124 238C124 218.67 139.67 203 159 203C178.33 203 194 218.67 194 238Z" fill="black"/>
<path d="M194 238C194 257.33 178.33 273 159 273C139.67 273 124 257.33 124 238C124 218.67 139.67 203 159 203C178.33 203 194 218.67 194 238Z" fill="black"/>
<path d="M194 238C194 257.33 178.33 273 159 273C139.67 273 124 257.33 124 238C124 218.67 139.67 203 159 203C178.33 203 194 218.67 194 238Z" fill="black"/>
<path d="M347 238C347 257.33 331.33 273 312 273C292.67 273 277 257.33 277 238C277 218.67 292.67 203 312 203C331.33 203 347 218.67 347 238Z" fill="black"/>
<path d="M347 238C347 257.33 331.33 273 312 273C292.67 273 277 257.33 277 238C277 218.67 292.67 203 312 203C331.33 203 347 218.67 347 238Z" fill="black"/>
<path d="M347 238C347 257.33 331.33 273 312 273C292.67 273 277 257.33 277 238C277 218.67 292.67 203 312 203C331.33 203 347 218.67 347 238Z" fill="black"/>
<path d="M347 238C347 257.33 331.33 273 312 273C292.67 273 277 257.33 277 238C277 218.67 292.67 203 312 203C331.33 203 347 218.67 347 238Z" fill="black"/>
</g>
</svg>
